<svg width="800" height="400" viewBox="0 0 800 400" xmlns="http://www.w3.org/2000/svg"><clipPath id="satori_cp-id"><rect x="0" y="0" width="800" height="400"/></clipPath><mask id="satori_om-id"><rect x="0" y="0" width="800" height="400" fill="#fff"/></mask><rect x="0" y="0" width="800" height="400" fill="#272822"/><defs><pattern id="satori_pattern_id-0_1" x="0" y="0" width="1" height="1" patternUnits="objectBoundingBox"><radialGradient id="satori_radial_id-0_1" spreadMethod="pad"><stop offset="0" stop-color="rgba(249, 38, 114, 0.08)"/><stop offset="0.5" stop-color="rgba(249, 38, 114, 0)"/><stop offset="1" stop-color="rgba(249, 38, 114, 0)"/></radialGradient><mask id="satori_mask_id-0_1"><rect x="0" y="0" width="800" height="400" fill="#fff"/></mask><rect x="0" y="0" width="800" height="400" fill="rgba(249, 38, 114, 0)"/><circle cx="640" cy="280" width="800" height="400" r="698.5699678629193" fill="url(#satori_radial_id-0_1)" mask="url(#satori_mask_id-0_1)"/></pattern><pattern id="satori_pattern_id-0_0" x="0" y="0" width="1" height="1" patternUnits="objectBoundingBox"><radialGradient id="satori_radial_id-0_0" spreadMethod="pad"><stop offset="0" stop-color="rgba(166, 226, 46, 0.08)"/><stop offset="0.5" stop-color="rgba(166, 226, 46, 0)"/><stop offset="1" stop-color="rgba(166, 226, 46, 0)"/></radialGradient><mask id="satori_mask_id-0_0"><rect x="0" y="0" width="800" height="400" fill="#fff"/></mask><rect x="0" y="0" width="800" height="400" fill="rgba(166, 226, 46, 0)"/><circle cx="160" cy="120" width="800" height="400" r="698.5699678629193" fill="url(#satori_radial_id-0_0)" mask="url(#satori_mask_id-0_0)"/></pattern></defs><mask id="satori_om-id-0"><rect x="0" y="0" width="800" height="400" fill="#fff" mask="url(#satori_om-id)"/></mask><rect x="0" y="0" width="800" height="400" fill="url(#satori_pattern_id-0_1)" clip-path="url(#satori_cp-id)" mask="url(#satori_om-id)"/><rect x="0" y="0" width="800" height="400" fill="url(#satori_pattern_id-0_0)" clip-path="url(#satori_cp-id)" mask="url(#satori_om-id)"/><mask id="satori_om-id-1"><rect x="241" y="143" width="318" height="114" fill="#fff" mask="url(#satori_om-id)"/></mask><mask id="satori_om-id-1-0"><rect x="333" y="143" width="134" height="58" fill="#fff" mask="url(#satori_om-id)"/></mask><defs><filter id="satori_s-id-1-0-0" x="-13.13%" y="-26.55%" width="136.27%" height="170.69%"><feDropShadow dx="0" dy="2" stdDeviation="4" flood-color="rgba(0, 0, 0, 0.5)" flood-opacity="1"/></filter></defs><g filter="url(#satori_s-id-1-0-0)"><g mask="url(#satori_om-id)" clip-path="url(#satori_cp-id)"><path fill="#F8F8F2" d="M343.4 190L336.0 190L336.0 155.1L343.4 155.1L343.4 170.5L343.9 170.5L356.4 155.1L365.3 155.1L352.3 170.7L365.4 190L356.6 190L347.0 175.6L343.4 180.1L343.4 190ZM377.9 190L370.6 190L370.6 163.8L377.9 163.8L377.9 190ZM374.3 160.4L374.3 160.4Q372.7 160.4 371.5 159.4Q370.4 158.3 370.4 156.8L370.4 156.8Q370.4 155.3 371.5 154.2Q372.7 153.1 374.3 153.1L374.3 153.1Q375.9 153.1 377.1 154.2Q378.2 155.3 378.2 156.8L378.2 156.8Q378.2 158.3 377.1 159.4Q375.9 160.4 374.3 160.4ZM391.0 174.9L391.0 174.9L391.0 190L383.7 190L383.7 163.8L390.6 163.8L390.6 168.4L390.9 168.4Q391.8 166.2 393.8 164.8Q395.9 163.5 398.8 163.5L398.8 163.5Q401.5 163.5 403.6 164.7Q405.6 165.9 406.7 168.1Q407.8 170.3 407.8 173.3L407.8 173.3L407.8 190L400.6 190L400.6 174.6Q400.6 172.2 399.3 170.9Q398.1 169.5 395.9 169.5L395.9 169.5Q394.4 169.5 393.3 170.1Q392.2 170.8 391.6 172.0Q391.0 173.2 391.0 174.9ZM425.4 190.5L425.4 190.5Q421.4 190.5 418.5 188.8Q415.6 187.1 414.1 184.1Q412.5 181.0 412.5 177.0L412.5 177.0Q412.5 173.0 414.1 169.9Q415.6 166.9 418.5 165.2Q421.4 163.5 425.4 163.5L425.4 163.5Q429.3 163.5 432.2 165.2Q435.1 166.9 436.7 169.9Q438.3 173.0 438.3 177.0L438.3 177.0Q438.3 181.0 436.7 184.1Q435.1 187.1 432.2 188.8Q429.3 190.5 425.4 190.5ZM425.4 184.9L425.4 184.9Q427.2 184.9 428.4 183.9Q429.6 182.8 430.3 181.0Q430.9 179.2 430.9 177.0L430.9 177.0Q430.9 174.7 430.3 172.9Q429.6 171.1 428.4 170.1Q427.2 169.0 425.4 169.0L425.4 169.0Q423.6 169.0 422.3 170.1Q421.1 171.1 420.5 172.9Q419.9 174.7 419.9 177.0L419.9 177.0Q419.9 179.2 420.5 181.0Q421.1 182.8 422.3 183.9Q423.6 184.9 425.4 184.9ZM450.5 190.5L450.5 190.5Q448.0 190.5 446.0 189.6Q444.0 188.7 442.9 187.0Q441.8 185.3 441.8 182.7L441.8 182.7Q441.8 180.5 442.6 179.0Q443.4 177.5 444.8 176.6Q446.1 175.7 447.9 175.3Q449.7 174.8 451.6 174.6L451.6 174.6Q453.9 174.4 455.3 174.2Q456.7 174.0 457.3 173.5Q457.9 173.1 457.9 172.3L457.9 172.3L457.9 172.2Q457.9 170.6 456.9 169.7Q455.9 168.8 454.1 168.8L454.1 168.8Q452.1 168.8 450.9 169.6Q449.8 170.5 449.4 171.8L449.4 171.8L442.7 171.3Q443.2 168.9 444.7 167.1Q446.2 165.4 448.6 164.4Q451.0 163.5 454.1 163.5L454.1 163.5Q456.3 163.5 458.3 164.0Q460.3 164.5 461.8 165.6Q463.4 166.6 464.3 168.3Q465.2 170.0 465.2 172.3L465.2 172.3L465.2 190L458.3 190L458.3 186.4L458.1 186.4Q457.5 187.6 456.4 188.5Q455.4 189.5 453.9 190.0Q452.4 190.5 450.5 190.5ZM452.5 185.5L452.5 185.5Q454.1 185.5 455.4 184.8Q456.6 184.2 457.3 183.1Q458.0 182.0 458.0 180.6L458.0 180.6L458.0 177.9Q457.7 178.1 457.1 178.3Q456.5 178.4 455.7 178.6Q455.0 178.7 454.3 178.8Q453.5 179.0 452.9 179.0L452.9 179.0Q451.7 179.2 450.7 179.6Q449.8 180.0 449.2 180.7Q448.7 181.4 448.7 182.4L448.7 182.4Q448.7 183.9 449.8 184.7Q450.9 185.5 452.5 185.5Z "/></g></g><mask id="satori_om-id-1-1"><rect x="241" y="217" width="318" height="24" fill="#fff" mask="url(#satori_om-id)"/></mask><g mask="url(#satori_om-id)" clip-path="url(#satori_cp-id)"><path fill="#75715E" d="M246.5 223.0L242.0 223.0L242.0 221.5L252.9 221.5L252.9 223.0L248.3 223.0L248.3 236L246.5 236L246.5 223.0ZM257.1 229.4L257.1 229.4L257.1 236L255.4 236L255.4 221.5L257.1 221.5L257.1 226.8L257.2 226.8Q257.6 226.0 258.3 225.4Q259.1 224.9 260.4 224.9L260.4 224.9Q261.5 224.9 262.4 225.4Q263.2 225.8 263.7 226.7Q264.1 227.7 264.1 229.1L264.1 229.1L264.1 236L262.4 236L262.4 229.2Q262.4 227.9 261.8 227.2Q261.1 226.5 259.9 226.5L259.9 226.5Q259.1 226.5 258.4 226.8Q257.8 227.2 257.4 227.8Q257.1 228.5 257.1 229.4ZM271.8 236.2L271.8 236.2Q270.2 236.2 269.1 235.5Q267.9 234.8 267.3 233.6Q266.7 232.3 266.7 230.6L266.7 230.6Q266.7 229.0 267.3 227.7Q267.9 226.4 269.0 225.7Q270.1 224.9 271.6 224.9L271.6 224.9Q272.4 224.9 273.3 225.2Q274.1 225.5 274.8 226.2Q275.5 226.8 275.9 227.8Q276.3 228.9 276.3 230.4L276.3 230.4L276.3 231.1L267.9 231.1L267.9 229.7L274.6 229.7Q274.6 228.7 274.2 228.0Q273.8 227.3 273.2 226.9Q272.5 226.5 271.6 226.5L271.6 226.5Q270.6 226.5 269.9 226.9Q269.1 227.4 268.7 228.2Q268.4 229.0 268.4 229.9L268.4 229.9L268.4 230.9Q268.4 232.1 268.8 233.0Q269.2 233.8 270.0 234.3Q270.8 234.7 271.8 234.7L271.8 234.7Q272.4 234.7 273.0 234.5Q273.5 234.3 273.9 234.0Q274.3 233.6 274.5 233.0L274.5 233.0L276.1 233.5Q275.9 234.3 275.3 234.9Q274.7 235.5 273.8 235.9Q272.9 236.2 271.8 236.2Z M296.4 226L296.4 226L294.6 226Q294.5 225.2 294.1 224.7Q293.7 224.1 293.2 223.7Q292.6 223.3 291.9 223.1Q291.3 222.9 290.5 222.9L290.5 222.9Q289.2 222.9 288.2 223.6Q287.1 224.2 286.5 225.5Q285.8 226.8 285.8 228.7L285.8 228.7Q285.8 230.6 286.5 231.9Q287.1 233.2 288.2 233.9Q289.2 234.6 290.5 234.6L290.5 234.6Q291.3 234.6 291.9 234.4Q292.6 234.2 293.2 233.8Q293.7 233.4 294.1 232.8Q294.5 232.2 294.6 231.5L294.6 231.5L296.4 231.5Q296.2 232.6 295.7 233.5Q295.1 234.3 294.4 234.9Q293.6 235.6 292.6 235.9Q291.6 236.2 290.5 236.2L290.5 236.2Q288.7 236.2 287.2 235.3Q285.8 234.4 285.0 232.7Q284.1 231.0 284.1 228.7L284.1 228.7Q284.1 226.4 285.0 224.8Q285.8 223.1 287.2 222.2Q288.7 221.3 290.5 221.3L290.5 221.3Q291.6 221.3 292.6 221.6Q293.6 221.9 294.4 222.5Q295.1 223.1 295.7 224.0Q296.2 224.9 296.4 226ZM300.7 236L299.0 236L299.0 225.1L300.7 225.1L300.7 236ZM299.9 223.3L299.9 223.3Q299.4 223.3 299.0 222.9Q298.7 222.6 298.7 222.1L298.7 222.1Q298.7 221.7 299.0 221.3Q299.4 221 299.9 221L299.9 221Q300.4 221 300.7 221.3Q301.1 221.7 301.1 222.1L301.1 222.1Q301.1 222.6 300.7 222.9Q300.4 223.3 299.9 223.3ZM305.4 229.4L305.4 229.4L305.4 236L303.8 236L303.8 225.1L305.4 225.1L305.4 226.8L305.5 226.8Q305.9 226.0 306.7 225.5Q307.5 224.9 308.7 224.9L308.7 224.9Q309.8 224.9 310.6 225.4Q311.5 225.9 311.9 226.8Q312.4 227.7 312.4 229.1L312.4 229.1L312.4 236L310.7 236L310.7 229.2Q310.7 227.9 310.0 227.2Q309.4 226.5 308.2 226.5L308.2 226.5Q307.4 226.5 306.8 226.8Q306.2 227.2 305.8 227.8Q305.4 228.5 305.4 229.4ZM320.0 236.2L320.0 236.2Q318.5 236.2 317.3 235.5Q316.2 234.8 315.6 233.6Q314.9 232.3 314.9 230.6L314.9 230.6Q314.9 229.0 315.6 227.7Q316.2 226.4 317.3 225.7Q318.4 224.9 319.9 224.9L319.9 224.9Q320.7 224.9 321.5 225.2Q322.4 225.5 323.1 226.2Q323.7 226.8 324.1 227.8Q324.6 228.9 324.6 230.4L324.6 230.4L324.6 231.1L316.1 231.1L316.1 229.7L322.8 229.7Q322.8 228.7 322.5 228.0Q322.1 227.3 321.4 226.9Q320.8 226.5 319.9 226.5L319.9 226.5Q318.9 226.5 318.1 226.9Q317.4 227.4 317.0 228.2Q316.6 229.0 316.6 229.9L316.6 229.9L316.6 230.9Q316.6 232.1 317.1 233.0Q317.5 233.8 318.3 234.3Q319.0 234.7 320.0 234.7L320.0 234.7Q320.7 234.7 321.2 234.5Q321.8 234.3 322.2 234.0Q322.5 233.6 322.8 233.0L322.8 233.0L324.4 233.5Q324.1 234.3 323.5 234.9Q322.9 235.5 322.0 235.9Q321.1 236.2 320.0 236.2ZM328.8 236L327.1 236L327.1 225.1L328.7 225.1L328.7 226.8L328.9 226.8Q329.2 225.9 330.0 225.4Q330.7 224.9 331.8 224.9L331.8 224.9Q332.9 224.9 333.6 225.4Q334.3 225.9 334.7 226.8L334.7 226.8L334.8 226.8Q335.3 226.0 336.1 225.4Q336.9 224.9 338.1 224.9L338.1 224.9Q339.6 224.9 340.5 225.9Q341.4 226.8 341.4 228.7L341.4 228.7L341.4 236L339.8 236L339.8 228.7Q339.8 227.5 339.1 227.0Q338.4 226.5 337.5 226.5L337.5 226.5Q336.4 226.5 335.8 227.1Q335.1 227.8 335.1 228.9L335.1 228.9L335.1 236L333.4 236L333.4 228.5Q333.4 227.6 332.8 227.0Q332.2 226.5 331.3 226.5L331.3 226.5Q330.6 226.5 330.0 226.8Q329.5 227.2 329.1 227.8Q328.8 228.4 328.8 229.2L328.8 229.2L328.8 236ZM347.7 236.3L347.7 236.3Q346.7 236.3 345.8 235.9Q345.0 235.5 344.5 234.7Q344.0 234.0 344.0 232.9L344.0 232.9Q344.0 232.0 344.4 231.4Q344.7 230.8 345.3 230.5Q346.0 230.1 346.7 230.0Q347.5 229.8 348.2 229.7L348.2 229.7Q349.2 229.6 349.8 229.5Q350.5 229.4 350.7 229.3Q351.0 229.1 351.0 228.7L351.0 228.7L351.0 228.6Q351.0 227.6 350.5 227.0Q349.9 226.4 348.7 226.4L348.7 226.4Q347.5 226.4 346.8 227.0Q346.2 227.5 345.9 228.1L345.9 228.1L344.3 227.5Q344.7 226.5 345.4 226.0Q346.1 225.4 347.0 225.2Q347.8 224.9 348.7 224.9L348.7 224.9Q349.2 224.9 349.9 225.1Q350.6 225.2 351.2 225.6Q351.9 226.0 352.3 226.7Q352.7 227.5 352.7 228.8L352.7 228.8L352.7 236L351.0 236L351.0 234.5L350.9 234.5Q350.8 234.9 350.4 235.3Q350.0 235.7 349.3 236.0Q348.7 236.3 347.7 236.3ZM348.0 234.8L348.0 234.8Q349.0 234.8 349.6 234.4Q350.3 234.0 350.7 233.4Q351.0 232.7 351.0 232.1L351.0 232.1L351.0 230.5Q350.9 230.6 350.6 230.7Q350.2 230.9 349.7 230.9Q349.3 231 348.8 231.1Q348.4 231.1 348.1 231.1L348.1 231.1Q347.5 231.2 346.9 231.4Q346.3 231.6 346.0 232.0Q345.7 232.3 345.7 233.0L345.7 233.0Q345.7 233.9 346.3 234.3Q347.0 234.8 348.0 234.8Z M370.5 236L361.6 236L361.6 221.5L370.4 221.5L370.4 223.0L363.4 223.0L363.4 227.9L369.9 227.9L369.9 229.5L363.4 229.5L363.4 234.4L370.5 234.4L370.5 236ZM372.7 225.1L374.6 225.1L377.2 229.6L379.8 225.1L381.8 225.1L378.2 230.5L381.8 236L379.8 236L377.2 231.8L374.6 236L372.7 236L376.1 230.5L372.7 225.1ZM385.8 240.1L384.2 240.1L384.2 225.1L385.8 225.1L385.8 226.8L386.0 226.8Q386.2 226.5 386.5 226.1Q386.8 225.7 387.4 225.3Q388.1 224.9 389.1 224.9L389.1 224.9Q390.5 224.9 391.6 225.6Q392.6 226.3 393.2 227.6Q393.8 228.9 393.8 230.6L393.8 230.6Q393.8 232.3 393.2 233.6Q392.6 234.8 391.6 235.5Q390.5 236.2 389.2 236.2L389.2 236.2Q388.1 236.2 387.5 235.9Q386.8 235.5 386.5 235.1Q386.2 234.6 386.0 234.3L386.0 234.3L385.8 234.3L385.8 240.1ZM385.8 230.5L385.8 230.5Q385.8 231.8 386.2 232.7Q386.5 233.7 387.2 234.2Q387.9 234.7 388.9 234.7L388.9 234.7Q390.0 234.7 390.7 234.2Q391.4 233.6 391.7 232.7Q392.1 231.7 392.1 230.5L392.1 230.5Q392.1 229.4 391.8 228.5Q391.4 227.5 390.7 227.0Q390.0 226.5 388.9 226.5L388.9 226.5Q387.9 226.5 387.2 227.0Q386.5 227.5 386.2 228.4Q385.8 229.3 385.8 230.5ZM400.9 236.2L400.9 236.2Q399.3 236.2 398.2 235.5Q397.1 234.8 396.4 233.6Q395.8 232.3 395.8 230.6L395.8 230.6Q395.8 229.0 396.4 227.7Q397.1 226.4 398.2 225.7Q399.3 224.9 400.7 224.9L400.7 224.9Q401.6 224.9 402.4 225.2Q403.3 225.5 403.9 226.2Q404.6 226.8 405.0 227.8Q405.4 228.9 405.4 230.4L405.4 230.4L405.4 231.1L397.0 231.1L397.0 229.7L403.7 229.7Q403.7 228.7 403.4 228.0Q403.0 227.3 402.3 226.9Q401.7 226.5 400.7 226.5L400.7 226.5Q399.7 226.5 399.0 226.9Q398.3 227.4 397.9 228.2Q397.5 229.0 397.5 229.9L397.5 229.9L397.5 230.9Q397.5 232.1 397.9 233.0Q398.4 233.8 399.1 234.3Q399.9 234.7 400.9 234.7L400.9 234.7Q401.6 234.7 402.1 234.5Q402.6 234.3 403.0 234.0Q403.4 233.6 403.6 233.0L403.6 233.0L405.3 233.5Q405.0 234.3 404.4 234.9Q403.8 235.5 402.9 235.9Q402.0 236.2 400.9 236.2ZM409.7 236L408.0 236L408.0 225.1L409.6 225.1L409.6 226.7L409.7 226.7Q410.0 225.9 410.8 225.4Q411.6 224.9 412.6 224.9L412.6 224.9Q412.7 224.9 413.0 224.9Q413.3 224.9 413.4 224.9L413.4 224.9L413.4 226.7Q413.4 226.6 413.1 226.6Q412.8 226.5 412.4 226.5L412.4 226.5Q411.6 226.5 411.0 226.9Q410.4 227.2 410.0 227.8Q409.7 228.4 409.7 229.1L409.7 229.1L409.7 236ZM417.1 236L415.4 236L415.4 225.1L417.1 225.1L417.1 236ZM416.3 223.3L416.3 223.3Q415.8 223.3 415.4 222.9Q415.1 222.6 415.1 222.1L415.1 222.1Q415.1 221.7 415.4 221.3Q415.8 221 416.3 221L416.3 221Q416.8 221 417.1 221.3Q417.5 221.7 417.5 222.1L417.5 222.1Q417.5 222.6 417.1 222.9Q416.8 223.3 416.3 223.3ZM424.8 236.2L424.8 236.2Q423.2 236.2 422.0 235.5Q420.9 234.8 420.3 233.6Q419.7 232.3 419.7 230.6L419.7 230.6Q419.7 229.0 420.3 227.7Q420.9 226.4 422.0 225.7Q423.1 224.9 424.6 224.9L424.6 224.9Q425.4 224.9 426.3 225.2Q427.1 225.5 427.8 226.2Q428.5 226.8 428.9 227.8Q429.3 228.9 429.3 230.4L429.3 230.4L429.3 231.1L420.9 231.1L420.9 229.7L427.6 229.7Q427.6 228.7 427.2 228.0Q426.8 227.3 426.2 226.9Q425.5 226.5 424.6 226.5L424.6 226.5Q423.6 226.5 422.9 226.9Q422.1 227.4 421.7 228.2Q421.3 229.0 421.3 229.9L421.3 229.9L421.3 230.9Q421.3 232.1 421.8 233.0Q422.2 233.8 423.0 234.3Q423.7 234.7 424.8 234.7L424.8 234.7Q425.4 234.7 425.9 234.5Q426.5 234.3 426.9 234.0Q427.3 233.6 427.5 233.0L427.5 233.0L429.1 233.5Q428.8 234.3 428.2 234.9Q427.6 235.5 426.7 235.9Q425.9 236.2 424.8 236.2ZM433.5 229.4L433.5 229.4L433.5 236L431.8 236L431.8 225.1L433.4 225.1L433.4 226.8L433.6 226.8Q434.0 226.0 434.7 225.5Q435.5 224.9 436.8 224.9L436.8 224.9Q437.9 224.9 438.7 225.4Q439.5 225.9 440.0 226.8Q440.5 227.7 440.5 229.1L440.5 229.1L440.5 236L438.8 236L438.8 229.2Q438.8 227.9 438.1 227.2Q437.4 226.5 436.3 226.5L436.3 226.5Q435.5 226.5 434.9 226.8Q434.2 227.2 433.9 227.8Q433.5 228.5 433.5 229.4ZM448.0 236.2L448.0 236.2Q446.4 236.2 445.3 235.5Q444.2 234.8 443.6 233.5Q443.0 232.2 443.0 230.6L443.0 230.6Q443.0 228.9 443.6 227.7Q444.2 226.4 445.4 225.7Q446.5 224.9 447.9 224.9L447.9 224.9Q449.1 224.9 450.0 225.4Q450.9 225.8 451.5 226.6Q452.1 227.3 452.2 228.4L452.2 228.4L450.6 228.4Q450.4 227.6 449.7 227.0Q449.1 226.5 448.0 226.5L448.0 226.5Q447.0 226.5 446.2 227.0Q445.5 227.5 445.1 228.4Q444.7 229.3 444.7 230.5L444.7 230.5Q444.7 231.8 445.1 232.7Q445.5 233.7 446.2 234.2Q447.0 234.7 448.0 234.7L448.0 234.7Q448.6 234.7 449.1 234.5Q449.7 234.3 450.0 233.8Q450.4 233.4 450.6 232.8L450.6 232.8L452.2 232.8Q452.1 233.8 451.6 234.6Q451.0 235.3 450.1 235.8Q449.2 236.2 448.0 236.2ZM459.3 236.2L459.3 236.2Q457.7 236.2 456.6 235.5Q455.4 234.8 454.8 233.6Q454.2 232.3 454.2 230.6L454.2 230.6Q454.2 229.0 454.8 227.7Q455.4 226.4 456.5 225.7Q457.6 224.9 459.1 224.9L459.1 224.9Q459.9 224.9 460.8 225.2Q461.6 225.5 462.3 226.2Q463.0 226.8 463.4 227.8Q463.8 228.9 463.8 230.4L463.8 230.4L463.8 231.1L455.4 231.1L455.4 229.7L462.1 229.7Q462.1 228.7 461.7 228.0Q461.3 227.3 460.7 226.9Q460.0 226.5 459.1 226.5L459.1 226.5Q458.1 226.5 457.4 226.9Q456.6 227.4 456.2 228.2Q455.9 229.0 455.9 229.9L455.9 229.9L455.9 230.9Q455.9 232.1 456.3 233.0Q456.7 233.8 457.5 234.3Q458.3 234.7 459.3 234.7L459.3 234.7Q459.9 234.7 460.5 234.5Q461.0 234.3 461.4 234.0Q461.8 233.6 462.0 233.0L462.0 233.0L463.6 233.5Q463.4 234.3 462.8 234.9Q462.2 235.5 461.3 235.9Q460.4 236.2 459.3 236.2ZM467.0 234.0L468.8 234.0L468.7 234.8Q468.6 235.6 468.4 236.5Q468.1 237.4 467.9 238.3Q467.6 239.1 467.4 239.6L467.4 239.6L466.1 239.6Q466.2 239.1 466.4 238.4Q466.5 237.6 466.7 236.7Q466.8 235.8 466.9 234.8L466.9 234.8L467.0 234.0Z M480.8 236.3L480.8 236.3Q479.7 236.3 478.9 235.9Q478.0 235.5 477.5 234.7Q477.1 234.0 477.1 232.9L477.1 232.9Q477.1 232.0 477.4 231.4Q477.8 230.8 478.4 230.5Q479.0 230.1 479.8 230.0Q480.5 229.8 481.3 229.7L481.3 229.7Q482.3 229.6 482.9 229.5Q483.5 229.4 483.8 229.3Q484.1 229.1 484.1 228.7L484.1 228.7L484.1 228.6Q484.1 227.6 483.5 227.0Q483.0 226.4 481.8 226.4L481.8 226.4Q480.6 226.4 479.9 227.0Q479.2 227.5 479.0 228.1L479.0 228.1L477.4 227.5Q477.8 226.5 478.5 226.0Q479.2 225.4 480.1 225.2Q480.9 224.9 481.7 224.9L481.7 224.9Q482.3 224.9 482.9 225.1Q483.6 225.2 484.3 225.6Q484.9 226.0 485.3 226.7Q485.8 227.5 485.8 228.8L485.8 228.8L485.8 236L484.1 236L484.1 234.5L484.0 234.5Q483.8 234.9 483.4 235.3Q483.0 235.7 482.4 236.0Q481.7 236.3 480.8 236.3ZM481.0 234.8L481.0 234.8Q482.0 234.8 482.7 234.4Q483.4 234.0 483.7 233.4Q484.1 232.7 484.1 232.1L484.1 232.1L484.1 230.5Q484.0 230.6 483.6 230.7Q483.3 230.9 482.8 230.9Q482.3 231 481.9 231.1Q481.5 231.1 481.2 231.1L481.2 231.1Q480.5 231.2 480.0 231.4Q479.4 231.6 479.1 232.0Q478.7 232.3 478.7 233.0L478.7 233.0Q478.7 233.9 479.4 234.3Q480.0 234.8 481.0 234.8ZM487.9 225.1L493.6 225.1L493.6 226.5L487.9 226.5L487.9 225.1ZM489.6 233.3L489.6 222.5L491.3 222.5L491.3 232.9Q491.3 233.6 491.5 233.9Q491.7 234.3 492.0 234.4Q492.3 234.5 492.7 234.5L492.7 234.5Q493.0 234.5 493.2 234.5Q493.3 234.5 493.4 234.4L493.4 234.4L493.8 235.9Q493.6 236.0 493.3 236.1Q493.0 236.1 492.5 236.1L492.5 236.1Q491.8 236.1 491.1 235.8Q490.5 235.5 490.0 234.9Q489.6 234.3 489.6 233.3L489.6 233.3Z M503.4 229.4L503.4 229.4L503.4 236L501.7 236L501.7 221.5L503.4 221.5L503.4 226.8L503.6 226.8Q503.9 226.0 504.7 225.4Q505.5 224.9 506.8 224.9L506.8 224.9Q507.9 224.9 508.7 225.4Q509.6 225.8 510.0 226.7Q510.5 227.7 510.5 229.1L510.5 229.1L510.5 236L508.8 236L508.8 229.2Q508.8 227.9 508.1 227.2Q507.5 226.5 506.3 226.5L506.3 226.5Q505.5 226.5 504.8 226.8Q504.2 227.2 503.8 227.8Q503.4 228.5 503.4 229.4ZM518.0 236.2L518.0 236.2Q516.5 236.2 515.4 235.5Q514.3 234.8 513.7 233.6Q513.0 232.3 513.0 230.6L513.0 230.6Q513.0 228.9 513.7 227.6Q514.3 226.4 515.4 225.7Q516.5 224.9 518.0 224.9L518.0 224.9Q519.5 224.9 520.6 225.7Q521.7 226.4 522.3 227.6Q522.9 228.9 522.9 230.6L522.9 230.6Q522.9 232.3 522.3 233.6Q521.7 234.8 520.6 235.5Q519.5 236.2 518.0 236.2ZM518.0 234.7L518.0 234.7Q519.1 234.7 519.8 234.1Q520.6 233.6 520.9 232.6Q521.3 231.7 521.3 230.6L521.3 230.6Q521.3 229.5 520.9 228.6Q520.6 227.6 519.8 227.0Q519.1 226.5 518.0 226.5L518.0 226.5Q516.9 226.5 516.1 227.0Q515.4 227.6 515.1 228.6Q514.7 229.5 514.7 230.6L514.7 230.6Q514.7 231.7 515.1 232.6Q515.4 233.6 516.1 234.1Q516.9 234.7 518.0 234.7ZM527.2 236L525.5 236L525.5 225.1L527.1 225.1L527.1 226.8L527.3 226.8Q527.6 225.9 528.4 225.4Q529.1 224.9 530.2 224.9L530.2 224.9Q531.3 224.9 532.0 225.4Q532.7 225.9 533.1 226.8L533.1 226.8L533.2 226.8Q533.6 226.0 534.5 225.4Q535.3 224.9 536.5 224.9L536.5 224.9Q537.9 224.9 538.9 225.9Q539.8 226.8 539.8 228.7L539.8 228.7L539.8 236L538.1 236L538.1 228.7Q538.1 227.5 537.5 227.0Q536.8 226.5 535.9 226.5L535.9 226.5Q534.8 226.5 534.1 227.1Q533.5 227.8 533.5 228.9L533.5 228.9L533.5 236L531.8 236L531.8 228.5Q531.8 227.6 531.2 227.0Q530.6 226.5 529.6 226.5L529.6 226.5Q529.0 226.5 528.4 226.8Q527.9 227.2 527.5 227.8Q527.2 228.4 527.2 229.2L527.2 229.2L527.2 236ZM547.4 236.2L547.4 236.2Q545.9 236.2 544.7 235.5Q543.6 234.8 543.0 233.6Q542.4 232.3 542.4 230.6L542.4 230.6Q542.4 229.0 543.0 227.7Q543.6 226.4 544.7 225.7Q545.8 224.9 547.3 224.9L547.3 224.9Q548.1 224.9 549.0 225.2Q549.8 225.5 550.5 226.2Q551.2 226.8 551.6 227.8Q552.0 228.9 552.0 230.4L552.0 230.4L552.0 231.1L543.6 231.1L543.6 229.7L550.3 229.7Q550.3 228.7 549.9 228.0Q549.5 227.3 548.9 226.9Q548.2 226.5 547.3 226.5L547.3 226.5Q546.3 226.5 545.5 226.9Q544.8 227.4 544.4 228.2Q544.0 229.0 544.0 229.9L544.0 229.9L544.0 230.9Q544.0 232.1 544.5 233.0Q544.9 233.8 545.7 234.3Q546.4 234.7 547.4 234.7L547.4 234.7Q548.1 234.7 548.6 234.5Q549.2 234.3 549.6 234.0Q550.0 233.6 550.2 233.0L550.2 233.0L551.8 233.5Q551.5 234.3 550.9 234.9Q550.3 235.5 549.4 235.9Q548.6 236.2 547.4 236.2ZM555.7 236.1L555.7 236.1Q555.2 236.1 554.8 235.7Q554.5 235.4 554.5 234.8L554.5 234.8Q554.5 234.3 554.8 233.9Q555.2 233.6 555.7 233.6L555.7 233.6Q556.3 233.6 556.6 233.9Q557.0 234.3 557.0 234.8L557.0 234.8Q557.0 235.2 556.8 235.5Q556.7 235.8 556.4 235.9Q556.1 236.1 555.7 236.1Z "/></g></svg>