<svg width="800" height="400" viewBox="0 0 800 400" xmlns="http://www.w3.org/2000/svg"><mask id="satori_om-id"><rect x="0" y="0" width="800" height="400" fill="#fff"/></mask><rect x="0" y="0" width="800" height="400" fill="#fff"/><mask id="satori_om-id-0"><rect x="274" y="168" width="252" height="64" fill="#fff"/></mask><g  ><path fill="black" d="M275.2 190.1L292.6 190.1L292.6 196.1L275.2 196.1L275.2 190.1ZM279.1 211.2L279.1 183.2L287.1 183.2L287.1 210.1Q287.1 211.2 287.5 211.8Q287.8 212.5 288.4 212.7Q289.0 212.9 289.8 212.9L289.8 212.9Q290.4 212.9 291.0 212.8Q291.5 212.7 291.8 212.7L291.8 212.7L293.1 218.6Q292.5 218.8 291.4 219.1Q290.3 219.3 288.8 219.4L288.8 219.4Q285.9 219.5 283.7 218.6Q281.5 217.7 280.3 215.9Q279.1 214.0 279.1 211.2L279.1 211.2ZM306.4 202.3L306.4 202.3L306.4 219L298.4 219L298.4 180.5L306.2 180.5L306.2 195.2L306.5 195.2Q307.5 192.6 309.7 191.2Q311.9 189.7 315.2 189.7L315.2 189.7Q318.2 189.7 320.4 191.0Q322.7 192.3 323.9 194.8Q325.2 197.2 325.2 200.6L325.2 200.6L325.2 219L317.1 219L317.1 202.0Q317.2 199.4 315.8 197.9Q314.4 196.4 312.0 196.4L312.0 196.4Q310.3 196.4 309.1 197.1Q307.8 197.8 307.1 199.1Q306.4 200.4 306.4 202.3ZM344.5 219.6L344.5 219.6Q340.2 219.6 337.0 217.7Q333.8 215.8 332.0 212.5Q330.3 209.1 330.3 204.7L330.3 204.7Q330.3 200.2 332.0 196.8Q333.8 193.5 337.0 191.6Q340.2 189.7 344.5 189.7L344.5 189.7Q348.9 189.7 352.1 191.6Q355.3 193.5 357.0 196.8Q358.8 200.2 358.8 204.7L358.8 204.7Q358.8 209.1 357.0 212.5Q355.3 215.8 352.1 217.7Q348.9 219.6 344.5 219.6ZM344.6 213.4L344.6 213.4Q346.6 213.4 347.9 212.2Q349.2 211.1 349.9 209.1Q350.6 207.1 350.6 204.6L350.6 204.6Q350.6 202.1 349.9 200.1Q349.2 198.1 347.9 197.0Q346.6 195.8 344.6 195.8L344.6 195.8Q342.6 195.8 341.2 197.0Q339.8 198.1 339.1 200.1Q338.5 202.1 338.5 204.6L338.5 204.6Q338.5 207.1 339.1 209.1Q339.8 211.1 341.2 212.2Q342.6 213.4 344.6 213.4ZM382.5 206.7L382.5 206.7L382.5 190.1L390.6 190.1L390.6 219L382.9 219L382.9 213.7L382.6 213.7Q381.6 216.3 379.3 217.8Q377.0 219.4 373.8 219.4L373.8 219.4Q370.9 219.4 368.7 218.1Q366.5 216.7 365.3 214.3Q364.0 211.9 364.0 208.5L364.0 208.5L364.0 190.1L372.0 190.1L372.0 207.1Q372.0 209.6 373.4 211.1Q374.7 212.6 377.0 212.6L377.0 212.6Q378.5 212.6 379.7 211.9Q381.0 211.3 381.8 209.9Q382.6 208.6 382.5 206.7ZM410.0 230.4L410.0 230.4Q406.1 230.4 403.3 229.4Q400.5 228.3 398.9 226.5Q397.3 224.7 396.8 222.4L396.8 222.4L404.2 221.4Q404.5 222.3 405.3 223.0Q406.0 223.8 407.2 224.2Q408.4 224.7 410.2 224.7L410.2 224.7Q412.8 224.7 414.5 223.4Q416.2 222.1 416.2 219.2L416.2 219.2L416.2 213.9L415.9 213.9Q415.3 215.1 414.3 216.2Q413.2 217.2 411.6 217.9Q409.9 218.6 407.6 218.6L407.6 218.6Q404.4 218.6 401.7 217.1Q399.0 215.6 397.5 212.4Q395.9 209.3 395.9 204.5L395.9 204.5Q395.9 199.6 397.5 196.3Q399.1 193.0 401.7 191.4Q404.4 189.7 407.6 189.7L407.6 189.7Q410.0 189.7 411.7 190.5Q413.3 191.4 414.3 192.6Q415.3 193.8 415.9 194.9L415.9 194.9L416.2 194.9L416.2 190.1L424.1 190.1L424.1 219.3Q424.1 223.0 422.3 225.5Q420.5 227.9 417.3 229.2Q414.1 230.4 410.0 230.4ZM410.2 212.6L410.2 212.6Q412.1 212.6 413.4 211.6Q414.8 210.6 415.5 208.8Q416.2 207.0 416.2 204.5L416.2 204.5Q416.2 201.9 415.5 200.0Q414.8 198.2 413.4 197.1Q412.1 196.1 410.2 196.1L410.2 196.1Q408.2 196.1 406.8 197.2Q405.5 198.2 404.8 200.1Q404.1 202.0 404.1 204.5L404.1 204.5Q404.1 207.0 404.8 208.8Q405.5 210.6 406.8 211.6Q408.2 212.6 410.2 212.6ZM438.5 202.3L438.5 202.3L438.5 219L430.5 219L430.5 180.5L438.3 180.5L438.3 195.2L438.6 195.2Q439.6 192.6 441.8 191.2Q444.0 189.7 447.3 189.7L447.3 189.7Q450.3 189.7 452.5 191.0Q454.8 192.3 456.0 194.8Q457.3 197.2 457.3 200.6L457.3 200.6L457.3 219L449.3 219L449.3 202.0Q449.3 199.4 447.9 197.9Q446.6 196.4 444.1 196.4L444.1 196.4Q442.5 196.4 441.2 197.1Q440.0 197.8 439.3 199.1Q438.6 200.4 438.5 202.3ZM461.6 190.1L479.0 190.1L479.0 196.1L461.6 196.1L461.6 190.1ZM465.5 211.2L465.5 183.2L473.5 183.2L473.5 210.1Q473.5 211.2 473.9 211.8Q474.2 212.5 474.8 212.7Q475.4 212.9 476.3 212.9L476.3 212.9Q476.8 212.9 477.4 212.8Q477.9 212.7 478.2 212.7L478.2 212.7L479.5 218.6Q478.9 218.8 477.8 219.1Q476.7 219.3 475.2 219.4L475.2 219.4Q472.3 219.5 470.1 218.6Q467.9 217.7 466.7 215.9Q465.5 214.0 465.5 211.2L465.5 211.2ZM507.9 198.3L507.9 198.3L500.5 198.8Q500.3 197.8 499.7 197.1Q499.1 196.3 498.1 195.9Q497.1 195.4 495.7 195.4L495.7 195.4Q493.8 195.4 492.5 196.2Q491.3 197.0 491.3 198.3L491.3 198.3Q491.3 199.3 492.1 200.0Q492.9 200.7 494.9 201.2L494.9 201.2L500.2 202.2Q504.4 203.1 506.4 205.0Q508.5 206.9 508.5 210.0L508.5 210.0Q508.5 212.9 506.8 215.0Q505.2 217.2 502.3 218.4Q499.4 219.6 495.6 219.6L495.6 219.6Q489.9 219.6 486.5 217.2Q483.1 214.8 482.5 210.6L482.5 210.6L490.4 210.2Q490.8 212.0 492.1 212.9Q493.5 213.8 495.7 213.8L495.7 213.8Q497.8 213.8 499.1 213.0Q500.3 212.1 500.4 210.9L500.4 210.9Q500.3 209.8 499.4 209.1Q498.5 208.3 496.7 208.0L496.7 208.0L491.6 207.0Q487.4 206.1 485.4 204.0Q483.3 201.9 483.3 198.7L483.3 198.7Q483.3 195.9 484.8 193.9Q486.3 191.9 489.1 190.8Q491.8 189.7 495.5 189.7L495.5 189.7Q501.0 189.7 504.2 192.0Q507.3 194.3 507.9 198.3ZM518.3 219.5L518.3 219.5Q516.4 219.5 515.1 218.2Q513.7 216.8 513.7 215.0L513.7 215.0Q513.7 213.1 515.1 211.8Q516.4 210.5 518.3 210.5L518.3 210.5Q520.1 210.5 521.4 211.8Q522.8 213.1 522.8 215.0L522.8 215.0Q522.8 216.2 522.1 217.2Q521.5 218.3 520.5 218.9Q519.5 219.5 518.3 219.5Z "/></g></svg>